<?xml version="1.0" encoding="UTF-8"?>
<svg xmlns="http://www.w3.org/2000/svg" viewBox="-16 -16 3300 1400">
  <defs>
    <style>
      .cls-1 {
        stroke-miterlimit: 10;
      }

      .cls-1, .cls-2 {
        padding: 13px;
        fill: none;
        stroke: #131314ff;
        stroke-linecap: round;
        stroke-width: 64px;
      }

      .cls-2 {
        stroke-linejoin: round;
      }
    </style>
  </defs>
  <g id="_图层_1" data-name="图层 1">
    <path class="cls-1" d="M3185,226.35c-52.38,34.75-298.26,497.64-574.51,575.26-68.09,19.13-142.29-7.37-180.76-66.72-37.84-58.38-50.91-138.2-13.38-198.74,45.58-62.05,16.5,245.54-129.05,276.21-104.91,22.11-118.96-90.94-67.54-191.04,55.32-107.69,179.56-95.81,158.95-88.72-136.8,55.61-205.45,219.23-269.72,266.53-20.83,15.33-54.95,13.37-66.29-9.88-47.4-97.24-42.39-354.46,146.54-734.83,44.71-98.48,64,16.35-123.5,396.81-36.88,74.84-22,64.7-104.59,122.42-54.1,37.82-76.26,45.68-256.84,160.16-39.12,30.67-12.69,96.44,86.41,75.23,91.2-19.52,85.35-82.33,68.31-111.92-98.67-169.86-159.99-90.33-100.25-155.29,57.85-62.9,179.95-109.92,159.87-103.74-17.37,5.35-426.41,187.46-428.93,375.81-.46,34.18,99.36-322.22,112.14-281.05-55.36,202.98-459.69,501.28-226.41-.36,11.65-25.04-91.29,263.13-222.95,279.1-67.99,8.25-143.28-101.67-10.56-288.68,12.42-10.11-215.97,273.99-238.3,299.86-113.28,131.24-304.27,412.53-199.16,513.89,54.62,52.67,99.07-82.46,190.21-446.29,45.25-180.63,49.68-289.57-11.18-363.03-21.12-25.49,91.01,54.18,31.05,181.34-40.12,85.09-107.54,110.62-138.09,103.99-199.19-43.24,27.03-266.27,37.55-278.61"/>
    <path class="cls-1" d="M1567.07,468.99c7.48-4.06,53.55-27.23,58.2-29.81"/>
    <path class="cls-1" d="M2305.15,312.65c-13.39-7.05-363.38-43.99-374.35-43.96"/>
  </g>
  <g id="_图层_2" data-name="图层 2">
    <path id="fi" class="cls-2" d="M525.91,19c-11.58,13-11.3,12.5-16.86,18.9C72.06,540.58,18.66,1616.97,167.93,1267.96,563.45,343.23-136.54,548.29,51.91,535.51c283.5-19.22,369.09,37.62,493.96-6.39,29.11-10.26-142.23,370.58-124.56,289.57,12.41-56.89,140.1-269.14,371.1-287.59,6.74-.54,26.8-1.07,20.48-1.11"/>
    <path class="cls-1" d="M522.34,468.99c13.62-7.18,49.06-24.13,59.62-29.81"/>
  </g>
</svg>